<svg width="26" height="17" viewBox="0 0 26 17" fill="none" xmlns="http://www.w3.org/2000/svg">
<path d="M24.3947 7H1.9198C1.0332 7 0.314453 7.67158 0.314453 8.5C0.314453 9.32842 1.0332 10 1.9198 10H24.3947C25.2813 10 26.0001 9.32842 26.0001 8.5C26.0001 7.67158 25.2813 7 24.3947 7Z" fill="#025595"/>
<path d="M1.9198 3.00001H24.3947C25.2813 3.00001 26.0001 2.32843 26.0001 1.5C26.0001 0.67158 25.2813 0 24.3947 0H1.9198C1.0332 0 0.314453 0.67158 0.314453 1.5C0.314453 2.32843 1.0332 3.00001 1.9198 3.00001Z" fill="#025595"/>
<path d="M24.3947 14H1.9198C1.0332 14 0.314453 14.6716 0.314453 15.5C0.314453 16.3284 1.0332 17 1.9198 17H24.3947C25.2813 17 26.0001 16.3284 26.0001 15.5C26.0001 14.6716 25.2813 14 24.3947 14Z" fill="#025595"/>
</svg>
