<svg width="31" height="30" viewBox="0 0 31 30" fill="none" xmlns="http://www.w3.org/2000/svg">
<path opacity="0.4" d="M26.7472 10.5625C25.4347 4.7875 20.3972 2.1875 15.9722 2.1875C15.9722 2.1875 15.9722 2.1875 15.9597 2.1875C11.5472 2.1875 6.49717 4.775 5.18467 10.55C3.72217 17 7.67217 22.4625 11.2472 25.9C12.5722 27.175 14.2722 27.8125 15.9722 27.8125C17.6722 27.8125 19.3722 27.175 20.6847 25.9C24.2597 22.4625 28.2097 17.0125 26.7472 10.5625Z" fill="#025595"/>
<path d="M15.9722 16.8251C18.1468 16.8251 19.9097 15.0622 19.9097 12.8876C19.9097 10.713 18.1468 8.95007 15.9722 8.95007C13.7975 8.95007 12.0347 10.713 12.0347 12.8876C12.0347 15.0622 13.7975 16.8251 15.9722 16.8251Z" fill="#025595"/>
</svg>
