<svg width="42" height="40" viewBox="0 0 42 40" fill="none" xmlns="http://www.w3.org/2000/svg">
<path d="M35.4832 1.99558H32.406C31.0095 1.99707 29.8779 3.01711 29.8762 4.27585V6.70941L22.821 0.662069C21.8052 -0.22069 20.1967 -0.22069 19.1809 0.662069L0.866098 16.3606C0.035758 17.0717 -0.226372 18.1688 0.205571 19.1249C0.594259 20.0545 1.58297 20.6684 2.68506 20.6644H3.2472V37.6663C3.26107 38.9656 4.4391 40.0096 5.88056 40H36.1194C37.5609 40.0096 38.7389 38.9656 38.7528 37.6663V20.6644H39.3149C40.417 20.6684 41.4057 20.0545 41.7944 19.1249C42.2264 18.1687 41.9642 17.0717 41.1339 16.3606L38.0131 13.685V4.27585C38.0113 3.01711 36.8797 1.99707 35.4832 1.99558ZM31.3557 4.27585C31.3565 3.75328 31.8263 3.3298 32.406 3.3291H35.4832C36.0629 3.3298 36.5328 3.75328 36.5335 4.27585V12.4168L31.3557 7.9776V4.27585ZM40.42 18.6309C40.25 19.0494 39.8093 19.3286 39.3149 19.3309H38.013C37.6044 19.3309 37.2733 19.6295 37.2733 19.9977V37.6663C37.2599 38.2293 36.744 38.6765 36.1194 38.6665H5.88047C5.25583 38.6765 4.73989 38.2293 4.72654 37.6663V19.9977C4.72654 19.6294 4.39532 19.3309 3.98687 19.3309H2.68498C2.19053 19.3286 1.74983 19.0494 1.57985 18.6309C1.37068 18.1812 1.4923 17.6618 1.88532 17.3267L20.2025 1.62288C20.645 1.22877 21.3569 1.22877 21.7994 1.62288L40.1151 17.3247C40.5087 17.6604 40.6301 18.1807 40.42 18.6309Z" fill="white"/>
<path d="M28.7951 20.8046C28.3519 20.8046 27.9388 20.9261 27.5959 21.1331C27.3004 20.3769 26.4991 19.8325 25.5598 19.8325C25.1165 19.8325 24.7035 19.954 24.3605 20.1611C24.0651 19.4048 23.2638 18.8604 22.3244 18.8604C21.9319 18.8604 21.5631 18.9557 21.246 19.1219V15.9442C21.246 14.872 20.2786 14 19.0891 14C17.8995 14 16.9322 14.872 16.9322 15.9442V27.3088L13.9675 25.9722C13.5211 25.7709 13.0206 25.665 12.5213 25.665C11.3847 25.665 10.4615 26.4981 10.4615 27.5275C10.4615 28.0242 10.6761 28.4899 11.0654 28.8408L18.0387 35.1263C19.6143 36.5475 21.7119 37.33 23.9421 37.33C27.8073 37.33 30.9521 34.4954 30.9521 31.0114V22.7487C30.9521 21.6765 29.9847 20.8046 28.7951 20.8046ZM29.8736 31.0114C29.8736 33.9598 27.2119 36.3579 23.941 36.3579C21.9987 36.3579 20.174 35.6764 18.8022 34.438L11.8279 28.1526C11.6424 27.9863 11.54 27.7637 11.54 27.5217C11.54 27.0337 11.98 26.6371 12.5213 26.6371C12.8546 26.6371 13.1868 26.7081 13.4855 26.8422L17.2309 28.5298C17.3981 28.6046 17.5976 28.5968 17.7551 28.5084C17.9136 28.4199 18.0107 28.2634 18.0107 28.0952V15.9442C18.0107 15.4085 18.4938 14.9721 19.0891 14.9721C19.6844 14.9721 20.1675 15.4086 20.1675 15.9442V25.179C20.1675 25.4473 20.4091 25.665 20.7068 25.665C21.0044 25.665 21.246 25.4473 21.246 25.179V20.8046C21.246 20.269 21.7291 19.8325 22.3244 19.8325C22.9197 19.8325 23.4029 20.269 23.4029 20.8046V25.179C23.4029 25.4473 23.6445 25.665 23.9421 25.665C24.2398 25.665 24.4814 25.4473 24.4814 25.179V21.7767C24.4814 21.241 24.9645 20.8046 25.5598 20.8046C26.1551 20.8046 26.6382 21.2411 26.6382 21.7767V25.179C26.6382 25.4473 26.8798 25.665 27.1775 25.665C27.4751 25.665 27.7167 25.4473 27.7167 25.179V22.7487C27.7167 22.2131 28.1998 21.7767 28.7951 21.7767C29.3904 21.7767 29.8736 22.2132 29.8736 22.7487V31.0114Z" fill="white"/>
</svg>
