<svg width="41" height="40" viewBox="0 0 41 40" fill="none" xmlns="http://www.w3.org/2000/svg">
<g clip-path="url(#clip0_0_42)">
<path d="M33.5556 1.99552H30.7819C29.5232 1.99701 28.5031 3.01704 28.5016 4.27578V6.70935L22.1422 0.662008C21.2267 -0.220751 19.7767 -0.220751 18.8612 0.662008L2.3527 16.3605C1.60425 17.0716 1.36798 18.1687 1.75732 19.1248C2.10767 20.0544 2.99887 20.6683 3.99226 20.6643H4.49896V37.6663C4.51146 38.9656 5.5733 40.0095 6.87259 39.9999H34.1291C35.4284 40.0095 36.4902 38.9656 36.5027 37.6663V20.6643H37.0094C38.0028 20.6683 38.894 20.0544 39.2444 19.1248C39.6337 18.1686 39.3974 17.0716 38.649 16.3605L35.836 13.6849V4.27578C35.8344 3.01704 34.8143 1.99701 33.5556 1.99552ZM29.8352 4.27578C29.8359 3.75322 30.2594 3.32974 30.7819 3.32903H33.5556C34.0782 3.32974 34.5016 3.75322 34.5023 4.27578V12.4167L29.8352 7.97754V4.27578ZM38.0055 18.6308C37.8523 19.0494 37.455 19.3285 37.0093 19.3309H35.8359C35.4676 19.3309 35.1691 19.6294 35.1691 19.9976V37.6663C35.1571 38.2292 34.6921 38.6765 34.129 38.6664H6.87252C6.30948 38.6765 5.84443 38.2292 5.8324 37.6663V19.9976C5.8324 19.6294 5.53385 19.3309 5.16568 19.3309H3.99218C3.54651 19.3285 3.14927 19.0494 2.99605 18.6308C2.80752 18.1811 2.91714 17.6617 3.2714 17.3267L19.782 1.62282C20.1808 1.22871 20.8226 1.22871 21.2214 1.62282L37.7307 17.3246C38.0855 17.6603 38.1949 18.1807 38.0055 18.6308Z" fill="#025595"/>
<path d="M10.4995 23.998C10.4968 27.68 12.5193 31.0652 15.7629 32.8076C19.0064 34.5501 22.9455 34.3674 26.014 32.3324L30.4238 36.7429C30.9282 37.2471 31.6633 37.444 32.3522 37.2593C33.0411 37.0746 33.5791 36.5364 33.7637 35.8475C33.9482 35.1585 33.7512 34.4235 33.2468 33.9193L28.8349 29.5114C31.2021 25.9429 31.0345 21.2632 28.4183 17.873C25.8021 14.4829 21.3178 13.1344 17.2657 14.5195C13.2136 15.9046 10.4931 19.7157 10.4995 23.998ZM32.3074 34.8659C32.4335 34.9884 32.5047 35.1568 32.5047 35.3326C32.5047 35.5084 32.4335 35.6768 32.3074 35.7993C32.0476 36.0565 31.6291 36.0565 31.3694 35.7993L27.0809 31.5109C27.4137 31.2194 27.7268 30.9063 28.0183 30.5734L32.3074 34.8659ZM29.1684 23.998C29.1684 28.7851 25.2877 32.6657 20.5008 32.6657C15.7138 32.6657 11.833 28.7851 11.833 23.998C11.833 19.211 15.7137 15.3304 20.5007 15.3304C25.2854 15.3359 29.1628 19.2133 29.1684 23.998Z" fill="#025595"/>
<path fill-rule="evenodd" clip-rule="evenodd" d="M17.5211 17.2966C14.8756 18.4768 13.1703 21.1012 13.1666 23.9981C13.1666 24.3663 13.4652 24.6648 13.8333 24.6648C14.2016 24.6648 14.5001 24.3662 14.5001 23.9981C14.5036 21.6273 15.8994 19.4799 18.0645 18.5141C18.2867 18.42 18.4407 18.2133 18.4672 17.9735C18.4938 17.7337 18.3887 17.4982 18.1924 17.3579C17.9962 17.2174 17.7395 17.194 17.5211 17.2966Z" fill="#025595"/>
<path d="M20.5007 17.9974C20.8689 17.9974 21.1674 17.6989 21.1674 17.3307C21.1674 16.9624 20.8689 16.6639 20.5007 16.6639C20.1325 16.6639 19.834 16.9624 19.834 17.3307C19.834 17.6989 20.1325 17.9974 20.5007 17.9974Z" fill="#025595"/>
</g>
<defs>
<clipPath id="clip0_0_42">
<rect width="40" height="40" fill="white" transform="translate(0.500732)"/>
</clipPath>
</defs>
</svg>
