<svg width="41" height="40" viewBox="0 0 41 40" fill="none" xmlns="http://www.w3.org/2000/svg">
<g clip-path="url(#clip0_0_69)">
<path d="M33.5555 1.99552H30.7819C29.5231 1.99701 28.5031 3.01704 28.5016 4.27578V6.70935L22.1422 0.662008C21.2266 -0.220751 19.7767 -0.220751 18.8611 0.662008L2.35264 16.3605C1.60419 17.0716 1.36791 18.1687 1.75726 19.1248C2.10761 20.0544 2.99881 20.6683 3.9922 20.6643H4.4989V37.6663C4.5114 38.9656 5.57324 40.0095 6.87253 39.9999H34.129C35.4283 40.0095 36.4902 38.9656 36.5027 37.6663V20.6643H37.0094C38.0028 20.6683 38.894 20.0544 39.2443 19.1248C39.6337 18.1686 39.3974 17.0716 38.6489 16.3605L35.836 13.6849V4.27578C35.8343 3.01704 34.8143 1.99701 33.5555 1.99552ZM29.8351 4.27578C29.8358 3.75322 30.2593 3.32974 30.7819 3.32903H33.5555C34.0781 3.32974 34.5016 3.75322 34.5023 4.27578V12.4167L29.8351 7.97754V4.27578ZM38.0054 18.6308C37.8522 19.0494 37.455 19.3285 37.0093 19.3309H35.8358C35.4675 19.3309 35.1691 19.6294 35.1691 19.9976V37.6663C35.157 38.2292 34.692 38.6765 34.129 38.6664H6.87246C6.30942 38.6765 5.84437 38.2292 5.83234 37.6663V19.9976C5.83234 19.6294 5.53379 19.3309 5.16562 19.3309H3.99212C3.54645 19.3285 3.14921 19.0494 2.99599 18.6308C2.80746 18.1811 2.91708 17.6617 3.27134 17.3267L19.7819 1.62282C20.1808 1.22871 20.8225 1.22871 21.2214 1.62282L37.7306 17.3246C38.0854 17.6603 38.1948 18.1807 38.0054 18.6308Z" fill="#025595"/>
<path fill-rule="evenodd" clip-rule="evenodd" d="M9.33368 24.7082C9.33368 30.6037 14.1308 35.4007 20.0263 35.4007C25.9218 35.4007 30.7188 30.6037 30.7188 24.7082C30.7188 24.3563 30.7022 24.0084 30.6693 23.6652C30.6303 23.2647 30.2756 22.973 29.8732 23.01C29.4727 23.0488 29.1792 23.4046 29.218 23.8062C29.2461 24.1025 29.2607 24.4038 29.2607 24.7082C29.2607 29.7997 25.1179 33.9426 20.0263 33.9426C14.9346 33.9426 10.7918 29.7997 10.7918 24.7082C10.7918 19.6165 14.9346 15.4736 20.0263 15.4736C21.7964 15.4736 23.5188 15.9781 25.0061 16.9337C25.3453 17.1514 25.7955 17.0533 26.014 16.714C26.2319 16.3748 26.1327 15.9238 25.7944 15.7059C24.0709 14.5997 22.0764 14.0156 20.0263 14.0156C14.1308 14.0156 9.33368 18.8127 9.33368 24.7082ZM20.7262 26.9241C20.868 27.0669 21.0547 27.1379 21.2413 27.1379C21.428 27.1379 21.6145 27.0669 21.7574 26.925L32.4501 16.2324C32.7349 15.9476 32.7349 15.4859 32.4501 15.2011C32.1653 14.9163 31.7036 14.9163 31.4186 15.2011L21.2423 25.3776L17.3832 21.5185C17.0984 21.2337 16.6367 21.2337 16.3519 21.5185C16.0672 21.8032 16.0672 22.2649 16.3519 22.5499L20.7262 26.9241Z" fill="#025595"/>
</g>
<defs>
<clipPath id="clip0_0_69">
<rect width="40" height="40" fill="white" transform="translate(0.500702)"/>
</clipPath>
</defs>
</svg>
