<svg width="30" height="30" viewBox="0 0 30 30" fill="none" xmlns="http://www.w3.org/2000/svg">
<path opacity="0.4" d="M15.0001 27.375C21.9036 27.375 27.5001 21.7786 27.5001 14.875C27.5001 7.97144 21.9036 2.375 15.0001 2.375C8.0965 2.375 2.50006 7.97144 2.50006 14.875C2.50006 21.7786 8.0965 27.375 15.0001 27.375Z" fill="#025595"/>
<path d="M17.8251 15L15.9376 14.3375V10.1H16.3876C17.4001 10.1 18.2251 10.9875 18.2251 12.075C18.2251 12.5875 18.6501 13.0125 19.1626 13.0125C19.6751 13.0125 20.1001 12.5875 20.1001 12.075C20.1001 9.95 18.4376 8.225 16.3876 8.225H15.9376V7.5C15.9376 6.9875 15.5126 6.5625 15.0001 6.5625C14.4876 6.5625 14.0626 6.9875 14.0626 7.5V8.225H13.2501C11.4001 8.225 9.88757 9.7875 9.88757 11.7C9.88757 13.9375 11.1876 14.65 12.1751 15L14.0626 15.6625V19.8875H13.6126C12.6001 19.8875 11.7751 19 11.7751 17.9125C11.7751 17.4 11.3501 16.975 10.8376 16.975C10.3251 16.975 9.90007 17.4 9.90007 17.9125C9.90007 20.0375 11.5626 21.7625 13.6126 21.7625H14.0626V22.5C14.0626 23.0125 14.4876 23.4375 15.0001 23.4375C15.5126 23.4375 15.9376 23.0125 15.9376 22.5V21.775H16.7501C18.6001 21.775 20.1126 20.2125 20.1126 18.3C20.1001 16.05 18.8001 15.3375 17.8251 15ZM12.8001 13.2375C12.1626 13.0125 11.7751 12.8 11.7751 11.7125C11.7751 10.825 12.4376 10.1125 13.2626 10.1125H14.0751V13.6875L12.8001 13.2375ZM16.7501 19.9H15.9376V16.325L17.2001 16.7625C17.8376 16.9875 18.2251 17.2 18.2251 18.2875C18.2251 19.175 17.5626 19.9 16.7501 19.9Z" fill="#025595"/>
</svg>
