<svg width="27" height="27" viewBox="0 0 27 27" fill="none" xmlns="http://www.w3.org/2000/svg">
<path d="M6.08678 12.4199C5.2242 12.2931 4.35569 12.2107 3.48466 12.1729C3.10272 12.1493 2.59928 12.3484 2.5121 13.3114C2.49583 13.5536 2.5192 13.7968 2.58128 14.0314C2.63914 14.2765 2.76957 14.4983 2.95553 14.668C3.14149 14.8377 3.37432 14.9474 3.6236 14.9826L7.34678 15.5069C7.36537 15.51 7.38419 15.5115 7.40303 15.5114C7.47576 15.5115 7.54726 15.4927 7.61061 15.457C7.67396 15.4213 7.727 15.3698 7.76459 15.3075C7.80217 15.2453 7.82302 15.1743 7.82511 15.1017C7.82721 15.029 7.81047 14.957 7.77653 14.8926C6.55197 12.5633 6.2381 12.4666 6.08678 12.4199ZM3.74116 14.1473C3.65937 14.1348 3.58322 14.0981 3.52255 14.0418C3.46188 13.9855 3.41948 13.9124 3.40085 13.8318C3.3616 13.6873 3.34528 13.5375 3.35247 13.3879C3.3538 13.2599 3.38278 13.1336 3.43741 13.0178H3.44922C4.4111 13.078 5.49278 13.1652 5.78585 13.2169C6.10255 13.6407 6.38578 14.0885 6.63297 14.5563L3.74116 14.1473Z" fill="#222222"/>
<path d="M23.3786 12.1731C22.5076 12.2109 21.639 12.2933 20.7765 12.4201C20.6251 12.4667 20.3107 12.5635 19.0845 14.8951C19.0505 14.9594 19.0338 15.0314 19.0359 15.1041C19.038 15.1768 19.0588 15.2477 19.0964 15.3099C19.134 15.3722 19.187 15.4237 19.2504 15.4594C19.3137 15.4951 19.3852 15.5139 19.458 15.5138C19.4768 15.5139 19.4956 15.5124 19.5142 15.5093L23.2374 14.9851C23.4867 14.9498 23.7195 14.8401 23.9055 14.6704C24.0914 14.5007 24.2219 14.2789 24.2797 14.0339C24.3416 13.7992 24.365 13.556 24.3489 13.3139C24.2634 12.3486 23.7571 12.1501 23.3786 12.1731ZM23.4624 13.8319C23.4438 13.9125 23.4014 13.9857 23.3407 14.042C23.28 14.0982 23.2039 14.135 23.1221 14.1475L20.2303 14.5547C20.4776 14.0872 20.7606 13.6394 21.0768 13.2154C21.375 13.1631 22.4578 13.0759 23.4191 13.0163C23.4804 13.1306 23.512 13.2584 23.5108 13.3881C23.518 13.5377 23.5017 13.6874 23.4624 13.8319Z" fill="#222222"/>
<path d="M19.2718 12.8126C19.2293 12.7519 19.1716 12.7034 19.1044 12.672C19.0373 12.6406 18.9631 12.6274 18.8893 12.6337C18.8504 12.6371 14.9754 12.9712 13.433 12.9712C11.8906 12.9712 8.01501 12.6337 7.97676 12.6337C7.90289 12.6272 7.82861 12.6403 7.76143 12.6717C7.69425 12.7031 7.63654 12.7516 7.59414 12.8125C7.55173 12.8733 7.52614 12.9443 7.51994 13.0182C7.51374 13.0921 7.52715 13.1663 7.55882 13.2333L8.66976 15.5908C8.70225 15.6593 8.75253 15.7178 8.81536 15.7603C8.87819 15.8027 8.95126 15.8275 9.02695 15.8321L13.4308 16.0841L17.8413 15.8321C17.917 15.8276 17.9902 15.8029 18.053 15.7604C18.1159 15.718 18.1661 15.6594 18.1985 15.5908L19.3094 13.2333C19.3409 13.1661 19.3539 13.0918 19.3473 13.0179C19.3407 12.944 19.3146 12.8731 19.2718 12.8126ZM17.5404 15.0063L13.4319 15.2437L9.32563 15.0063L8.6332 13.5371C9.84763 13.6361 12.2551 13.8183 13.4336 13.8183C14.612 13.8183 17.0201 13.6361 18.2351 13.5371L17.5404 15.0063Z" fill="#222222"/>
<path d="M25.7006 21.021C25.5887 21.021 25.4814 21.0655 25.4023 21.1446C25.3232 21.2237 25.2787 21.331 25.2787 21.4429V23.1945C25.2787 23.234 25.263 23.272 25.2351 23.2999C25.2071 23.3279 25.1692 23.3436 25.1297 23.3436H22.9382C22.8986 23.3436 22.8607 23.3279 22.8328 23.2999C22.8048 23.272 22.7891 23.234 22.7891 23.1945V22.4723C22.7891 22.3604 22.7446 22.2531 22.6655 22.1739C22.5864 22.0948 22.4791 22.0504 22.3672 22.0504C22.2553 22.0504 22.148 22.0948 22.0689 22.1739C21.9898 22.2531 21.9453 22.3604 21.9453 22.4723V23.1945C21.9456 23.4577 22.0503 23.7101 22.2365 23.8962C22.4226 24.0823 22.6749 24.187 22.9382 24.1873H25.1319C25.3951 24.187 25.6475 24.0823 25.8336 23.8962C26.0197 23.7101 26.1244 23.4577 26.1247 23.1945V21.4429C26.1247 21.3873 26.1137 21.3322 26.0924 21.2809C26.0711 21.2296 26.0398 21.183 26.0004 21.1438C25.9609 21.1046 25.9142 21.0735 25.8627 21.0525C25.8113 21.0314 25.7562 21.0207 25.7006 21.021Z" fill="#222222"/>
<path d="M4.46676 22.0501C4.35488 22.0501 4.24757 22.0945 4.16845 22.1736C4.08934 22.2527 4.04489 22.36 4.04489 22.4719V23.1942C4.04489 23.2336 4.02926 23.2714 4.00143 23.2994C3.97359 23.3273 3.93582 23.3431 3.89639 23.3432H1.70264C1.6632 23.3431 1.62543 23.3273 1.5976 23.2994C1.56977 23.2714 1.55414 23.2336 1.55414 23.1942V21.4431C1.55414 21.3312 1.50969 21.2239 1.43057 21.1448C1.35146 21.0657 1.24415 21.0212 1.13226 21.0212C1.02038 21.0212 0.913069 21.0657 0.833953 21.1448C0.754836 21.2239 0.710388 21.3312 0.710388 21.4431V23.1947C0.710536 23.4577 0.814952 23.7099 1.00074 23.896C1.18654 24.0821 1.43854 24.187 1.70151 24.1876H3.89526C4.15843 24.1873 4.41073 24.0825 4.59676 23.8964C4.78279 23.7103 4.88736 23.4579 4.88751 23.1947V22.4725C4.88766 22.3607 4.84344 22.2534 4.76455 22.1742C4.68566 22.095 4.57855 22.0504 4.46676 22.0501Z" fill="#222222"/>
<path d="M26.0482 7.79337L24.642 7.55037C24.4365 7.51246 24.2242 7.54568 24.0402 7.64456C23.8561 7.74343 23.7113 7.90206 23.6295 8.09431L23.5535 8.26306L22.5568 5.91181C22.3314 5.37269 21.9718 4.90024 21.5122 4.53947C21.0526 4.17869 20.5082 3.94161 19.931 3.85081C17.7802 3.52429 15.6073 3.36519 13.4319 3.37493C11.2565 3.36538 9.08356 3.52467 6.93277 3.85137C6.35562 3.94212 5.81131 4.17912 5.35168 4.53979C4.89205 4.90046 4.53242 5.37279 4.30702 5.91181L3.30689 8.26531L3.23602 8.09993C3.15484 7.90687 3.01034 7.74719 2.8263 7.6472C2.64227 7.54721 2.42968 7.51286 2.22352 7.54981L0.817269 7.79337C0.589058 7.83121 0.381693 7.94885 0.232117 8.12531C0.0825403 8.30177 0.000467127 8.52561 0.000518823 8.75693V9.03312C0.000729496 9.2558 0.0766939 9.47178 0.215926 9.64557C0.355157 9.81935 0.549371 9.9406 0.766644 9.98937L2.10202 10.2909L1.51027 11.1937C0.997528 11.9738 0.724717 12.8871 0.725581 13.8206V18.6187C0.725581 20.4294 1.98671 21.5999 3.93971 21.5999H22.9241C24.8771 21.5999 26.1382 20.4299 26.1382 18.6187V13.8183C26.1391 12.8848 25.8663 11.9715 25.3535 11.1914L24.7618 10.2914L26.0926 9.99106C26.3105 9.94287 26.5055 9.82191 26.6455 9.6481C26.7855 9.47428 26.8621 9.25798 26.8627 9.03481V8.75862C26.8634 8.5273 26.7818 8.30327 26.6326 8.12648C26.4835 7.94969 26.2763 7.83163 26.0482 7.79337ZM0.948331 9.16362C0.918722 9.15696 0.892271 9.1404 0.87335 9.11667C0.854428 9.09294 0.84417 9.06347 0.844269 9.03312V8.75693C0.843811 8.72507 0.854981 8.69412 0.875688 8.6699C0.896394 8.64567 0.925219 8.62982 0.956769 8.62531L2.36921 8.38118C2.38902 8.37762 2.40945 8.38135 2.42672 8.39169C2.44399 8.40203 2.45693 8.41828 2.46314 8.43743L2.80796 9.21706L2.59758 9.53768L0.948331 9.16362ZM25.2945 17.3081H2.63864C2.52676 17.3081 2.41945 17.3525 2.34033 17.4316C2.26122 17.5107 2.21677 17.618 2.21677 17.7299C2.21677 17.8418 2.26122 17.9491 2.34033 18.0282C2.41945 18.1074 2.52676 18.1518 2.63864 18.1518H25.2945V18.6187C25.2945 19.9563 24.4085 20.7562 22.9241 20.7562H3.93971C2.45527 20.7562 1.56933 19.9569 1.56933 18.6187V13.8183C1.56874 13.0492 1.79343 12.2967 2.21564 11.6538L3.54539 9.62543H21.951C22.0628 9.62543 22.1701 9.58099 22.2493 9.50187C22.3284 9.42275 22.3728 9.31545 22.3728 9.20356C22.3728 9.09167 22.3284 8.98437 22.2493 8.90525C22.1701 8.82613 22.0628 8.78168 21.951 8.78168H4.00608L5.08383 6.24368C5.25346 5.83648 5.52463 5.47955 5.87146 5.20697C6.21829 4.93439 6.6292 4.75526 7.06496 4.68668C9.17191 4.36574 11.3007 4.20927 13.4319 4.21868C15.5631 4.20871 17.6918 4.36462 19.7988 4.685C20.2348 4.75373 20.6458 4.93311 20.9926 5.206C21.3395 5.47889 21.6106 5.83616 21.78 6.24368L23.013 9.15012C23.0225 9.17338 23.0344 9.19561 23.0484 9.2165L24.6481 11.6561C25.0704 12.2989 25.295 13.0514 25.2945 13.8206V17.3081ZM26.019 9.03312C26.0189 9.06408 26.0082 9.09408 25.9887 9.11806C25.9691 9.14204 25.9418 9.15853 25.9115 9.16475L24.2679 9.536L24.0575 9.21537L24.4046 8.42787C24.4124 8.41082 24.4256 8.39682 24.4422 8.38807C24.4588 8.37932 24.4778 8.37631 24.4963 8.3795L25.9059 8.62362C25.9374 8.62813 25.9663 8.64398 25.987 8.66821C26.0077 8.69244 26.0189 8.72338 26.0184 8.75525L26.019 9.03312Z" fill="#222222"/>
</svg>
