<svg width="31" height="30" viewBox="0 0 31 30" fill="none" xmlns="http://www.w3.org/2000/svg">
<path d="M28.4722 28.4375H3.47223C2.95973 28.4375 2.53473 28.0125 2.53473 27.5C2.53473 26.9875 2.95973 26.5625 3.47223 26.5625H28.4722C28.9847 26.5625 29.4097 26.9875 29.4097 27.5C29.4097 28.0125 28.9847 28.4375 28.4722 28.4375Z" fill="#025595"/>
<path opacity="0.4" d="M27.2222 12.4748V27.4999H4.65973L4.72223 12.4623C4.72223 11.6998 5.07223 10.9749 5.68473 10.4999L14.4347 3.6999C15.3347 2.9874 16.6097 2.9874 17.5097 3.6999L19.1847 4.99987L24.7222 9.29988L26.2597 10.4999C26.8722 10.9749 27.2222 11.6999 27.2222 12.4748Z" fill="#025595"/>
<path d="M17.2222 21.25H14.7222C13.6847 21.25 12.8472 22.0875 12.8472 23.125V27.5H19.0972V23.125C19.0972 22.0875 18.2597 21.25 17.2222 21.25Z" fill="#025595"/>
<path d="M12.8472 17.1875H10.3472C9.65973 17.1875 9.09723 16.625 9.09723 15.9375V14.0625C9.09723 13.375 9.65973 12.8125 10.3472 12.8125H12.8472C13.5347 12.8125 14.0972 13.375 14.0972 14.0625V15.9375C14.0972 16.625 13.5347 17.1875 12.8472 17.1875Z" fill="#025595"/>
<path d="M21.5972 17.1875H19.0972C18.4097 17.1875 17.8472 16.625 17.8472 15.9375V14.0625C17.8472 13.375 18.4097 12.8125 19.0972 12.8125H21.5972C22.2847 12.8125 22.8472 13.375 22.8472 14.0625V15.9375C22.8472 16.625 22.2847 17.1875 21.5972 17.1875Z" fill="#025595"/>
<path d="M24.7223 9.3L19.1848 5H23.4473C24.1348 5 24.6973 5.54999 24.6973 6.23749L24.7223 9.3Z" fill="#025595"/>
</svg>
