<svg width="27" height="27" viewBox="0 0 27 27" fill="none" xmlns="http://www.w3.org/2000/svg">
<path d="M25.875 13.7813V11.5313C25.875 9.82126 24.7725 8.7188 23.0625 8.7188H10.125C8.41498 8.7188 7.31252 9.82132 7.31252 11.5313V13.7637L1.83938 13.7757H1.12498V4.23564C1.12498 3.95441 0.922482 3.70128 0.64684 3.66189C0.298107 3.61126 0 3.88126 0 4.21876V22.7644C0 23.0456 0.2025 23.2987 0.478143 23.3381C0.826875 23.3888 1.12504 23.1188 1.12504 22.7813V19.4063H25.875V22.7644C25.875 23.0456 26.0775 23.2987 26.3532 23.3381C26.7019 23.3888 27 23.1188 27 22.7813V14.9063C27 14.1413 26.64 13.7869 25.875 13.7813ZM8.4375 11.5313C8.4375 10.0632 9.49498 9.84378 10.125 9.84378H23.0625C23.6925 9.84378 24.75 10.0632 24.75 11.5313V13.7813H8.4375V11.5313ZM25.875 18.2813H1.12498V14.9063H25.875V18.2813Z" fill="#222222"/>
<path d="M4.24512 7.51465C2.51949 7.51465 1.12061 8.91353 1.12061 10.6392C1.12061 12.3648 2.51949 13.7637 4.24512 13.7637C5.97074 13.7637 7.36963 12.3648 7.36963 10.6392C7.36963 8.91353 5.97074 7.51465 4.24512 7.51465ZM4.24512 12.7617C3.07288 12.7617 2.12256 11.8114 2.12256 10.6392C2.12256 9.46693 3.07288 8.5166 4.24512 8.5166C5.41735 8.5166 6.36768 9.46693 6.36768 10.6392C6.36768 11.8114 5.4174 12.7617 4.24512 12.7617Z" fill="#222222"/>
</svg>
