<svg width="27" height="27" viewBox="0 0 27 27" fill="none" xmlns="http://www.w3.org/2000/svg">
<g clip-path="url(#clip0_0_174)">
<path d="M25.65 14.3999H25.2V4.9499C25.2 2.69988 23.4 0.899902 21.15 0.899902C19.1582 0.899902 17.7257 2.37678 17.5655 4.54074C16.5198 4.73838 15.75 5.63898 15.75 6.74989C15.75 7.01989 15.93 7.19987 16.2 7.19987H19.8C20.07 7.19987 20.25 7.01989 20.25 6.74989C20.25 5.65127 19.4973 4.75816 18.4693 4.54733C18.6038 3.11738 19.4626 1.79987 21.15 1.79987C22.905 1.79987 24.3 3.19485 24.3 4.94985V14.3999H10.7565C10.5529 13.362 9.65551 12.5999 8.55004 12.5999C8.10005 12.0599 7.47004 11.6999 6.75005 11.6999C5.89507 11.6999 5.13005 12.1949 4.77004 12.9149C4.41002 12.7349 4.00502 12.5999 3.60002 12.5999C2.49455 12.5999 1.59711 13.362 1.39356 14.3999H1.35C0.584982 14.3999 0 14.9848 0 15.7499C0 16.5149 0.584982 17.0999 1.35 17.0999H1.89079L3.105 21.9149C3.46502 23.3099 4.725 24.2999 6.16502 24.2999H6.52504L5.94005 25.4699C5.80505 25.6949 5.89507 25.9649 6.12004 26.0549C6.16502 26.0999 6.25504 26.0999 6.30002 26.0999C6.48 26.0999 6.615 26.0099 6.70502 25.8749L7.4925 24.2999H19.98L20.745 25.8299C20.835 26.0099 20.97 26.0999 21.15 26.0999C21.24 26.0999 21.285 26.0999 21.33 26.0099C21.51 25.9198 21.6 25.6498 21.51 25.4249L20.9463 24.2975C22.3395 24.248 23.5443 23.2749 23.895 21.9599L25.1205 17.0999H25.65C26.415 17.0999 27 16.5149 27 15.7499C27 14.9849 26.415 14.3999 25.65 14.3999ZM19.305 6.2999H16.74C16.92 5.7599 17.46 5.39989 18.045 5.39989C18.6301 5.39989 19.125 5.7599 19.305 6.2999ZM3.60002 13.4999C4.00502 13.4999 4.36504 13.6799 4.68002 13.9949C4.77004 14.1299 4.95002 14.1749 5.13 14.1299C5.30998 14.0849 5.4 13.9499 5.44498 13.7699C5.57998 13.0949 6.11998 12.5999 6.79498 12.5999C7.29 12.5999 7.73998 12.8249 7.965 13.2749C8.05502 13.4549 8.27998 13.5449 8.46002 13.4999C8.505 13.4999 8.55004 13.4999 8.59502 13.4999C9.18 13.4999 9.67502 13.8599 9.855 14.3999H2.33998C2.52002 13.8599 3.01498 13.4999 3.60002 13.4999ZM23.085 21.6899C22.815 22.6799 21.915 23.3999 20.88 23.3999H6.21C5.17498 23.3999 4.27502 22.6799 4.00502 21.6899L2.835 17.0999H24.165L23.085 21.6899ZM25.65 16.1999H24.75H2.25002H1.35C1.08 16.1999 0.900018 16.0199 0.900018 15.7499C0.900018 15.4799 1.08 15.2999 1.35 15.2999H1.79998H10.35H25.65C25.92 15.2999 26.1 15.4799 26.1 15.7499C26.1 16.0199 25.92 16.1999 25.65 16.1999Z" fill="#222222"/>
<path d="M16.2 9.22484C16.47 9.22484 16.65 9.04485 16.65 8.77485V8.54984C16.65 8.27984 16.47 8.09985 16.2 8.09985C15.93 8.09985 15.75 8.27984 15.75 8.54984V8.77485C15.75 9.04485 15.93 9.22484 16.2 9.22484Z" fill="#222222"/>
<path d="M16.2 11.2949C16.47 11.2949 16.65 11.0699 16.65 10.8449V10.3499C16.65 10.0799 16.47 9.8999 16.2 9.8999C15.93 9.8999 15.75 10.0799 15.75 10.3499V10.8449C15.75 11.1149 15.93 11.2949 16.2 11.2949Z" fill="#222222"/>
<path d="M16.2 13.0498C16.47 13.0498 16.65 12.8698 16.65 12.5998V12.3748C16.65 12.1048 16.47 11.9248 16.2 11.9248C15.93 11.9248 15.75 12.1048 15.75 12.3748V12.5998C15.75 12.8698 15.93 13.0498 16.2 13.0498Z" fill="#222222"/>
<path d="M18 9.22484C18.27 9.22484 18.45 9.04485 18.45 8.77485V8.54984C18.45 8.27984 18.27 8.09985 18 8.09985C17.73 8.09985 17.55 8.27984 17.55 8.54984V8.77485C17.55 9.04485 17.73 9.22484 18 9.22484Z" fill="#222222"/>
<path d="M17.55 10.8449C17.55 11.1149 17.73 11.2949 18 11.2949C18.27 11.2949 18.45 11.0699 18.45 10.8449V10.3499C18.45 10.0799 18.27 9.8999 18 9.8999C17.73 9.8999 17.55 10.0799 17.55 10.3499V10.8449Z" fill="#222222"/>
<path d="M17.55 12.5998C17.55 12.8698 17.73 13.0498 18 13.0498C18.27 13.0498 18.45 12.8698 18.45 12.5998V12.3748C18.45 12.1048 18.27 11.9248 18 11.9248C17.73 11.9248 17.55 12.1048 17.55 12.3748V12.5998Z" fill="#222222"/>
<path d="M19.8 9.22484C20.07 9.22484 20.25 9.04485 20.25 8.77485V8.54984C20.25 8.27984 20.07 8.09985 19.8 8.09985C19.53 8.09985 19.35 8.27984 19.35 8.54984V8.77485C19.35 9.04485 19.53 9.22484 19.8 9.22484Z" fill="#222222"/>
<path d="M19.35 10.8449C19.35 11.1149 19.53 11.2949 19.8 11.2949C20.07 11.2949 20.25 11.0699 20.25 10.8449V10.3499C20.25 10.0799 20.07 9.8999 19.8 9.8999C19.53 9.8999 19.35 10.0799 19.35 10.3499V10.8449H19.35Z" fill="#222222"/>
<path d="M19.35 12.5998C19.35 12.8698 19.53 13.0498 19.8 13.0498C20.07 13.0498 20.2499 12.8698 20.2499 12.5998V12.3748C20.2499 12.1048 20.07 11.9248 19.8 11.9248C19.53 11.9248 19.35 12.1048 19.35 12.3748V12.5998Z" fill="#222222"/>
</g>
<defs>
<clipPath id="clip0_0_174">
<rect width="27" height="27" fill="white"/>
</clipPath>
</defs>
</svg>
