<svg width="69" height="56" viewBox="0 0 69 56" fill="none" xmlns="http://www.w3.org/2000/svg">
<path d="M56.143 3.35025C54.1962 1.39114 51.605 0.215795 48.8572 0.0454292C46.1095 -0.124937 43.3946 0.721417 41.2236 2.42521C39.2412 0.874883 36.8021 0.0330728 34.2916 0.0325831C31.781 0.0320935 29.3419 0.872954 27.3587 2.42251C25.097 0.636192 22.2433 -0.213867 19.38 0.0458754C16.5168 0.305617 13.86 1.65557 11.952 3.82014C10.0441 5.98472 9.02889 8.80065 9.11368 11.6931C9.19847 14.5855 10.3769 17.3364 12.4083 19.3839L19.3458 26.3679C19.3512 26.3731 19.3566 26.3782 19.3626 26.3836C19.3687 26.389 19.3704 26.3916 19.3742 26.3955C19.3814 26.4027 19.3892 26.4093 19.3964 26.4166C19.5067 26.5264 19.6186 26.6334 19.7322 26.7377C19.7907 26.7916 19.8498 26.8439 19.9092 26.8964C19.9574 26.9387 20.0059 26.9806 20.0546 27.022C22.0322 28.7086 24.5263 29.659 27.1178 29.7131C29.7094 29.7674 32.2405 28.9223 34.2861 27.3197C36.4571 29.0234 39.172 29.8698 41.9196 29.6994C44.6675 29.5291 47.2586 28.3537 49.2055 26.3946L56.1432 19.4116C58.2561 17.2801 59.4426 14.3919 59.4426 11.3809C59.4426 8.36984 58.2559 5.48177 56.143 3.35025ZM34.2894 2.99058C35.9389 2.98952 37.5516 3.48104 38.9233 4.40292C40.2952 5.3248 41.3643 6.63559 41.9957 8.1694C42.6271 9.70321 42.7921 11.3911 42.4701 13.0194C42.148 14.6477 41.3532 16.1432 40.1864 17.3166L34.2894 23.252L28.3923 17.3166C27.2254 16.1432 26.4307 14.6476 26.1086 13.0193C25.7865 11.391 25.9516 9.70315 26.583 8.16933C27.2143 6.63551 28.2836 5.32471 29.6554 4.40285C31.0273 3.48099 32.64 2.98948 34.2894 2.99058ZM19.0118 18.3642C19.0088 17.2613 19.2232 16.1689 19.6425 15.1501C20.0618 14.1313 20.6777 13.2062 21.4546 12.4286L23.0241 10.8488C22.9481 12.4279 23.2013 14.0055 23.7674 15.4803C24.3334 16.9549 25.1999 18.294 26.3109 19.4116L32.0873 25.2258C30.8414 26.1042 29.3798 26.6216 27.8618 26.7213C26.344 26.821 24.8279 26.4996 23.4791 25.7917C22.1302 25.0837 21.0003 24.0169 20.2126 22.707C19.4248 21.3972 19.0093 19.8948 19.0115 18.3637L19.0118 18.3642ZM14.4893 17.2887C13.0132 15.8033 12.1442 13.8147 12.0541 11.7158C11.9639 9.61679 12.659 7.56009 14.0021 5.95196C15.3453 4.34381 17.2388 3.30117 19.3086 3.02998C21.3784 2.75879 23.4739 3.27879 25.1813 4.48724L19.3732 10.3334C18.3222 11.3856 17.4889 12.6371 16.9217 14.0156C16.3545 15.3941 16.0645 16.8721 16.0686 18.3642C16.0686 18.5403 16.0727 18.7157 16.0808 18.8907L14.4893 17.2887ZM41.2275 26.7582C39.5236 26.7622 37.86 26.2369 36.4638 25.2539L42.2686 19.4116C43.3797 18.294 44.246 16.9549 44.812 15.4802C45.3781 14.0055 45.6313 12.4279 45.5554 10.8488L47.1249 12.4286C48.2913 13.6026 49.0854 15.0983 49.4071 16.7266C49.729 18.3549 49.5638 20.0427 48.9324 21.5766C48.3012 23.1104 47.2322 24.4213 45.8609 25.3437C44.4893 26.266 42.8769 26.7582 41.2275 26.7582ZM54.062 17.3166L52.4982 18.8907C52.5061 18.7159 52.5101 18.5405 52.5104 18.3642C52.5145 16.8721 52.2245 15.3941 51.6572 14.0156C51.09 12.6371 50.2566 11.3856 49.2056 10.3334L43.4015 4.49113C45.1119 3.29309 47.206 2.78303 49.2714 3.06135C51.3368 3.33966 53.2239 4.3862 54.561 5.99491C55.8982 7.60361 56.5885 9.6579 56.4961 11.7533C56.4038 13.8487 55.5355 15.8334 54.062 17.3166Z" fill="#025595"/>
<path d="M7.99589 37.4479C6.02089 37.4479 4.54443 37.8985 3.56651 38.7997C2.60777 39.6818 2.1284 40.9665 2.1284 42.6539V45.4726H11.735V47.3133H2.1284V55.8557H0V42.6251C0 40.42 0.690293 38.6943 2.07088 37.4479C3.45146 36.1824 5.39771 35.5496 7.90961 35.5496C10.3448 35.5496 12.3006 36.0769 13.7771 37.1315L13.0005 38.886C11.6966 37.9273 10.0284 37.4479 7.99589 37.4479Z" fill="#222222"/>
<path d="M21.3002 55.9995C19.9388 55.9995 18.8842 55.616 18.1364 54.849C17.4077 54.082 17.0434 53.0178 17.0434 51.6564V34.5142H19.0855V51.4839C19.0855 52.3851 19.2964 53.0754 19.7183 53.5547C20.1401 54.0149 20.7729 54.245 21.6166 54.245C22.1535 54.245 22.6137 54.1587 22.9972 53.9862L23.141 55.6831C22.5466 55.8941 21.933 55.9995 21.3002 55.9995Z" fill="#222222"/>
<path d="M31.8222 55.9995C30.3649 55.9995 29.0515 55.6736 27.8818 55.0216C26.7121 54.3505 25.7918 53.4301 25.1206 52.2604C24.4495 51.0908 24.114 49.7677 24.114 48.2913C24.114 46.8148 24.4495 45.4917 25.1206 44.3221C25.7918 43.1524 26.7121 42.2416 27.8818 41.5897C29.0515 40.9377 30.3649 40.6117 31.8222 40.6117C33.2795 40.6117 34.593 40.9377 35.7626 41.5897C36.9323 42.2416 37.8431 43.1524 38.4951 44.3221C39.1662 45.4917 39.5017 46.8148 39.5017 48.2913C39.5017 49.7677 39.1662 51.0908 38.4951 52.2604C37.8431 53.4301 36.9323 54.3505 35.7626 55.0216C34.593 55.6736 33.2795 55.9995 31.8222 55.9995ZM31.8222 54.1875C32.896 54.1875 33.8548 53.9478 34.6984 53.4685C35.5613 52.9699 36.2324 52.27 36.7118 51.3688C37.1912 50.4676 37.4309 49.4417 37.4309 48.2913C37.4309 47.1408 37.1912 46.1149 36.7118 45.2137C36.2324 44.3125 35.5613 43.6222 34.6984 43.1428C33.8548 42.6443 32.896 42.395 31.8222 42.395C30.7484 42.395 29.7801 42.6443 28.9172 43.1428C28.0736 43.6222 27.4024 44.3125 26.9039 45.2137C26.4245 46.1149 26.1848 47.1408 26.1848 48.2913C26.1848 49.4417 26.4245 50.4676 26.9039 51.3688C27.4024 52.27 28.0736 52.9699 28.9172 53.4685C29.7801 53.9478 30.7484 54.1875 31.8222 54.1875Z" fill="#222222"/>
<path d="M45.6267 43.6893C46.1061 42.673 46.8156 41.906 47.7551 41.3883C48.7139 40.8706 49.8931 40.6117 51.2929 40.6117V42.5963L50.8039 42.5676C49.2124 42.5676 47.9661 43.0565 47.0648 44.0344C46.1636 45.0124 45.713 46.3834 45.713 48.1474V55.8557H43.6709V40.7268H45.6267V43.6893Z" fill="#222222"/>
<path d="M68.6558 40.7268V55.8557H66.7V52.8644C66.0864 53.8807 65.2715 54.6573 64.2552 55.1942C63.2581 55.7311 62.1268 55.9995 60.8613 55.9995C59.4423 55.9995 58.1576 55.6736 57.0071 55.0216C55.8566 54.3697 54.9554 53.4589 54.3035 52.2892C53.6515 51.1195 53.3256 49.7869 53.3256 48.2913C53.3256 46.7956 53.6515 45.463 54.3035 44.2933C54.9554 43.1236 55.8566 42.2224 57.0071 41.5897C58.1576 40.9377 59.4423 40.6117 60.8613 40.6117C62.0884 40.6117 63.191 40.8706 64.1689 41.3883C65.166 41.8869 65.9809 42.6251 66.6137 43.603V40.7268H68.6558ZM61.0338 54.1875C62.0884 54.1875 63.0376 53.9478 63.8813 53.4685C64.7442 52.9699 65.4153 52.27 65.8946 51.3688C66.3932 50.4676 66.6425 49.4417 66.6425 48.2913C66.6425 47.1408 66.3932 46.1149 65.8946 45.2137C65.4153 44.3125 64.7442 43.6222 63.8813 43.1428C63.0376 42.6443 62.0884 42.395 61.0338 42.395C59.96 42.395 58.9917 42.6443 58.1288 43.1428C57.2852 43.6222 56.614 44.3125 56.1155 45.2137C55.6361 46.1149 55.3964 47.1408 55.3964 48.2913C55.3964 49.4417 55.6361 50.4676 56.1155 51.3688C56.614 52.27 57.2852 52.9699 58.1288 53.4685C58.9917 53.9478 59.96 54.1875 61.0338 54.1875Z" fill="#222222"/>
</svg>
